<svg width="49" height="48" viewBox="0 0 49 48" fill="none" xmlns="http://www.w3.org/2000/svg">
<path d="M25.9457 1.18336C25.3529 0.590732 24.549 0.257812 23.7108 0.257812C22.8725 0.257812 22.0686 0.590732 21.4758 1.18336L0.463527 22.1925C0.316571 22.3395 0.199999 22.5139 0.120467 22.7059C0.0409347 22.8979 0 23.1037 0 23.3115C0 23.5194 0.0409347 23.7252 0.120467 23.9172C0.199999 24.1092 0.316571 24.2836 0.463527 24.4306C0.760319 24.7274 1.16285 24.8941 1.58258 24.8941C1.79041 24.8941 1.9962 24.8532 2.18821 24.7737C2.38022 24.6941 2.55468 24.5776 2.70164 24.4306L23.7108 3.41831L44.7199 24.4306C45.0167 24.7274 45.4192 24.8941 45.839 24.8941C46.2587 24.8941 46.6612 24.7274 46.958 24.4306C47.2548 24.1338 47.4215 23.7313 47.4215 23.3115C47.4215 22.8918 47.2548 22.4893 46.958 22.1925L39.5166 14.7543V4.34453C39.5166 3.92533 39.3501 3.52331 39.0537 3.22689C38.7573 2.93047 38.3552 2.76395 37.936 2.76395H34.7749C34.3557 2.76395 33.9536 2.93047 33.6572 3.22689C33.3608 3.52331 33.1943 3.92533 33.1943 4.34453V8.43192L25.9457 1.18336Z" fill="white"/>
<path d="M23.7107 6.85156L38.6061 21.747C35.976 21.6227 33.363 22.2309 31.0581 23.5037C28.7532 24.7766 26.8467 26.6642 25.5511 28.9564C24.2554 31.2485 23.6213 33.8553 23.7194 36.4865C23.8176 39.1177 24.644 41.6701 26.1068 43.8594H9.48541C8.22782 43.8594 7.02173 43.3598 6.13248 42.4706C5.24323 41.5813 4.74365 40.3752 4.74365 39.1176V25.8186L23.7107 6.85156Z" fill="white"/>
<path d="M37.9357 47.0203C40.8701 47.0203 43.6842 45.8546 45.7592 43.7797C47.8341 41.7048 48.9998 38.8906 48.9998 35.9562C48.9998 33.0218 47.8341 30.2076 45.7592 28.1327C43.6842 26.0578 40.8701 24.8921 37.9357 24.8921C35.0013 24.8921 32.1871 26.0578 30.1122 28.1327C28.0373 30.2076 26.8716 33.0218 26.8716 35.9562C26.8716 38.8906 28.0373 41.7048 30.1122 43.7797C32.1871 45.8546 35.0013 47.0203 37.9357 47.0203ZM43.2433 32.8171L39.0231 39.8539C38.8377 40.1631 38.5842 40.4258 38.2819 40.6223C37.9796 40.8187 37.6365 40.9436 37.2786 40.9875C36.9208 41.0314 36.5577 40.9931 36.2169 40.8756C35.8761 40.758 35.5666 40.5643 35.3119 40.3091L32.8652 37.8655C32.5688 37.5687 32.4025 37.1664 32.4027 36.7469C32.403 36.3275 32.5699 35.9254 32.8667 35.629C33.1635 35.3326 33.5659 35.1663 33.9853 35.1666C34.4048 35.1669 34.8069 35.3338 35.1033 35.6306L36.8324 37.3597L40.531 31.1923C40.6377 31.0142 40.7784 30.8589 40.9451 30.7352C41.1118 30.6115 41.3013 30.5218 41.5027 30.4713C41.704 30.4208 41.9134 30.4105 42.1187 30.4409C42.3241 30.4713 42.5215 30.5419 42.6996 30.6486C42.8776 30.7553 43.033 30.896 43.1567 31.0627C43.2804 31.2294 43.3701 31.4189 43.4205 31.6203C43.471 31.8216 43.4814 32.031 43.4509 32.2363C43.4205 32.4417 43.35 32.6391 43.2433 32.8171Z" fill="white"/>
</svg>
