<svg width="61" height="61" viewBox="0 0 61 61" fill="none" xmlns="http://www.w3.org/2000/svg">
<path d="M48.2918 20.3333C49.64 20.3333 50.933 20.8689 51.8863 21.8222C52.8396 22.7755 53.3752 24.0685 53.3752 25.4167V42.5983C54.9256 43.9963 55.9168 46.0296 55.9168 48.2917C55.9168 52.5108 52.511 55.9167 48.2918 55.9167C44.0727 55.9167 40.6668 52.5108 40.6668 48.2917C40.6668 46.0296 41.6581 43.9963 43.2085 42.5983V25.4167C43.2085 22.6208 45.496 20.3333 48.2918 20.3333ZM48.2918 22.875C46.8939 22.875 45.7502 24.0187 45.7502 25.4167V27.9583H50.8335V25.4167C50.8335 24.0187 49.6897 22.875 48.2918 22.875ZM12.7085 50.8333V30.5H5.0835L30.5002 7.625L41.6835 17.69C40.5636 18.6412 39.6649 19.8254 39.0503 21.16C38.4357 22.4946 38.1199 23.9474 38.1252 25.4167V40.6667C36.5239 42.7762 35.5835 45.4196 35.5835 48.2917L35.8377 50.8333H12.7085Z" fill="white"/>
</svg>
