<svg width="62" height="62" viewBox="0 0 62 62" fill="none" xmlns="http://www.w3.org/2000/svg">
<g clip-path="url(#clip0_2036_502)">
<path d="M30.9998 5.1665C16.7398 5.1665 5.1665 16.7398 5.1665 30.9998C5.1665 45.2598 16.7398 56.8332 30.9998 56.8332C45.2598 56.8332 56.8332 45.2598 56.8332 30.9998C56.8332 16.7398 45.2598 5.1665 30.9998 5.1665ZM30.9998 49.0832C28.8557 49.0832 27.1248 47.3523 27.1248 45.2082H34.8748C34.8748 47.3523 33.144 49.0832 30.9998 49.0832ZM38.7498 42.6248H23.2498V38.7498H38.7498V42.6248ZM38.6723 36.1665H23.3273C20.1498 33.8157 18.0832 30.0698 18.0832 25.8332C18.0832 18.7032 23.8698 12.9165 30.9998 12.9165C38.1298 12.9165 43.9165 18.7032 43.9165 25.8332C43.9165 30.0698 41.8498 33.8157 38.6723 36.1665Z" fill="white"/>
</g>
<defs>
<clipPath id="clip0_2036_502">
<rect width="62" height="62" fill="white"/>
</clipPath>
</defs>
</svg>
